<svg width="318" height="94" viewBox="0 0 318 94" xmlns="http://www.w3.org/2000/svg">
    <g fill="none" fill-rule="evenodd">
        <path d="M200.024 31.306c.055-4.79-6.385-5.278-12.613-5.75-.652-.05-1.296-.098-1.921-.152-7.633-.653-12.106-1.527-14.958-2.922-3.09-1.51-4.476-3.72-4.494-7.166-.005-.898.239-3.242 2.601-5.59 2.198-2.184 6.76-4.788 16.01-4.788h.006c8.934 0 15.818 2.858 19.774 5.04l-.863 1.188c-3.847-2.083-10.479-4.8-18.911-4.8h-.006c-8.756 0-12.982 2.374-14.987 4.367-2.035 2.023-2.184 4.014-2.18 4.575.029 5.527 4.096 7.472 18.131 8.674.622.053 1.261.101 1.908.15 6.244.475 14.016 1.064 13.946 7.19-.06 5.343-4.893 8.018-14.774 8.176a38.36 38.36 0 0 1-.638.005c-10.468.001-17.638-4.143-21.13-6.768l.947-1.114c3.432 2.533 10.563 6.606 20.798 6.45 13.28-.213 13.336-5.144 13.354-6.765" fill="#85525A"/>
        <path d="M184.584 8.34c7.468-.094 13.522 2.6 17.32 4.773l.852-1.164c-3.926-2.267-10.272-5.134-18.19-5.033-13.348.165-14.618 5.844-14.69 7.58-.23 5.624 4.957 6.31 15.77 7.214 8.963.75 18.23 1.526 18.32 8.794.024 1.994-.681 3.72-2.097 5.127-3.282 3.261-9.98 4.423-15.163 4.423h-.02c-12.396-.008-19.603-4.22-22.786-6.717l-.95 1.11c3.344 2.668 10.782 7.024 23.734 7.031h.019c2.681 0 11.676-.353 16.197-4.846 1.698-1.688 2.545-3.755 2.515-6.145-.104-8.561-10.486-9.43-19.645-10.196-11.056-.926-14.616-1.575-14.445-5.737.184-4.462 6.97-6.135 13.259-6.214" fill="#85525A"/>
        <path d="M200.852 20.298c-3.513-1.713-8.449-2.755-16.006-3.38l-.21-.018c-6.186-.494-10.656-.85-10.656-2.786 0-1.7 3.693-2.8 9.403-2.8 6.35.058 11.36 1.44 15.318 4.226l.83-1.175c-4.205-2.96-9.482-4.428-16.142-4.49-9.44 0-10.85 2.656-10.85 4.24 0 3.262 4.51 3.623 11.982 4.219l.208.017c12.738 1.054 21.222 3.474 21.222 11.852 0 8.015-7.827 12.8-20.939 12.8-9.642 0-17.968-2.558-24.097-7.394l-.927 1.102c6.388 5.056 15.037 7.73 25.024 7.73 14.014 0 22.38-5.323 22.38-14.238 0-4.52-2.14-7.76-6.54-9.905" fill="#153A36"/>
        <path d="M184.247 27.717c8.01.656 10.714 1.491 10.714 3.311 0 2.55-5.174 3.084-9.515 3.084-7.556 0-14.013-2.028-18.687-5.865l-.943 1.103c4.94 4.057 11.724 6.203 19.63 6.203 2.716 0 10.98 0 10.98-4.525 0-3.497-4.774-4.15-12.055-4.746-15.167-1.29-21.93-4.866-21.93-11.593 0-7.563 8.095-12.26 21.127-12.26 8.323 0 15.747 1.915 20.993 5.394l.855-1.17c-5.49-3.654-13.218-5.665-21.848-5.665-6.51 0-12.054 1.189-16.035 3.439-4.29 2.425-6.558 5.974-6.558 10.262 0 9.793 12.436 12.106 23.272 13.028M82.818 42.016l-5.89-8.33a.805.805 0 0 0-1.085-.215l-12.628 7.968-5.252-15.65 17.165 3.474a.793.793 0 0 0 .667-.164.793.793 0 0 0 .294-.616v-7.502a.801.801 0 0 0-.961-.78L57.8 23.709l3.984-18.67 14.598 6.723a.809.809 0 0 0 .638.015.799.799 0 0 0 .447-.452l3.579-9.256a.792.792 0 0 0-.115-.772.807.807 0 0 0-.722-.305L61.12 3.104l-11.028 1.22a.802.802 0 0 0-.587.363.793.793 0 0 0-.085.68l6.514 19.412-3.78 17.713c-.05.235.01.48.162.666.152.187.38.295.623.295h29.138c.298-.003.619-.21.798-.616.12-.27.114-.58-.057-.82" fill="#153A36"/>
        <path d="M76.969 34.624a.793.793 0 0 0-1.079-.216l-12.544 8.008-5.218-15.73L75.18 30.18a.794.794 0 0 0 .663-.165.801.801 0 0 0 .292-.618v-3.719H56.113l-3.754 17.798a.803.803 0 0 0 .779.966h28.945c.296-.003.615-.212.792-.62.12-.272.114-.582-.056-.825l-5.85-8.372" fill="#7DA8CD"/>
        <path d="M132.473 11.596c9.19.209 12.843 9.817 22.577 4.711L152.385 0s-2.664 4.324-6.253 4.48c-3.589.157-9.897-1.614-16.53-.847-7.788.9-9.679 9.027-6.955 18.323 2.976 10.159 4.589 11.81 3.91 16.754-.544 3.96-3.372 5.731-3.372 5.731h17.292s-12.072-12.681-14.982-21.277c2.713.326 9.458 1.913 17.265 9.555l-4.5-13.494c-5.309-1.205-11.42.893-13.39 1.661-1.503-7.11 2.523-9.405 7.603-9.29" fill="#C84E32"/>
        <path d="M138.431 18.764s-1.227 1.582-.983 3.677c-4.057-1.607-10.324-3.157-13.526-.381-.024 3.528 7.515 19.011 7.515 19.011-4.971.032-8.46 2.065-8.921 2.347l-.056.035h18.32s-12.79-12.416-15.873-20.833c2.874.32 10.02 1.874 18.292 9.356l-4.768-13.212" fill="#292B50"/>
        <path d="M133.745 6.376c-4.146-.028-9.086 2.608-9.293 7.41-.208 4.804 1.556 6.953 1.556 6.953-1.544-7.06 2.593-9.34 7.814-9.224 9.445.207 13.2 9.747 23.203 4.678L154.286 0c0 .002-2.305 5.81-2.198 9.243-5.516.903-11.313-2.818-18.343-2.867" fill="#292B50"/>
        <path d="M288.959 36.996c-.986-.763-1.478-2-1.478-3.715 0-1.924.806-3.344 2.42-4.26.953-.54 2.523-.997 4.708-1.373l2.332-.423.07-.014v2.092c-.073 3.357-1.051 5.668-2.938 6.936a11.043 11.043 0 0 1-3.553 1.584 5.261 5.261 0 0 1-1.561-.827zm27.493-.332h-3.708c-.535-.377-.859-1.05-.853-2.242l-.006-12.892v-4.656c0-4.624-1.672-7.77-5.016-9.437-3.347-1.665-7.172-2.5-11.48-2.5h-4.666c-6.619 0-11.287 1.69-14.006 5.071-1.71 2.16-2.671 4.918-2.888 8.274h14.55c.243-1.479.729-2.652 1.457-3.521.697-.801 1.737-1.322 3.102-1.577.965.148 1.783.379 2.416.714 1.129.6 1.694 1.685 1.694 3.258 0 1.29-.736 2.241-2.209 2.852-.82.351-2.184.645-4.091.88l-3.513.422c-3.982.493-7 1.315-9.053 2.465-3.74 2.112-5.61 5.528-5.61 10.246 0 3.638 1.162 6.449 3.488 8.433 2.29 1.953 5.186 2.94 8.682 2.97l4.823.005c2.795 0 5.302-.623 7.52-1.867a22.016 22.016 0 0 0 1.73-1.107c1.696 2.04 4.35 2.927 7.085 2.927h4.666c2.723 0 5.447-.865 7.434-2.451l-1.548-6.267z" fill="#EC932F"/>
        <path d="M296.848 29.303c-.072 3.357-1.044 5.669-2.918 6.936-1.873 1.268-3.92 1.901-6.144 1.901-1.402 0-2.593-.381-3.572-1.144-.978-.763-1.468-2-1.468-3.715 0-1.924.801-3.344 2.404-4.26.947-.54 2.506-.997 4.677-1.373l2.317-.423c1.158-.21 2.069-.44 2.732-.686.663-.247 1.32-.569 1.972-.969v3.733zm14.677 7.361c-.731.216-1.338.429-1.923.429-1.535 0-2.618-.465-2.608-2.67l-.005-12.893v-4.656c0-4.624-1.661-7.77-4.984-9.437-3.323-1.665-7.124-2.5-11.403-2.5-6.574 0-11.211 1.69-13.913 5.071-1.698 2.16-2.653 4.918-2.868 8.274h9.819c.24-1.479.723-2.652 1.446-3.521 1.013-1.173 2.74-1.76 5.176-1.76 2.17 0 3.818.299 4.94.897 1.122.6 1.683 1.685 1.683 3.258 0 1.29-.731 2.241-2.194 2.852-.816.351-2.17.645-4.064.88l-3.49.422c-3.955.493-6.953 1.315-8.992 2.465-3.715 2.112-5.574 5.528-5.574 10.246 0 3.638 1.155 6.449 3.465 8.433 2.31 1.983 5.237 2.975 8.781 2.975 2.777 0 5.267-.623 7.47-1.867a20.964 20.964 0 0 0 4.883-3.837l.03-.028c1.173 4.03 4.752 5.685 8.478 5.685 2.705 0 5.41-.864 7.384-2.451l-1.537-6.267z" fill="#292B50"/>
        <path fill="#EC932F" d="M100.733 41.478h15.801V36.54h-15.801zM91.845 35.553h5.925V6.913h-5.925z"/>
        <path d="M116.89 41.862H98.21v-6.267h-6.72V4.555h8.082v29.691h17.317v7.616zm-15.698-9.207V2.963H89.87v34.224h6.72v6.266h21.92V32.655h-17.318z" fill="#85525A"/>
        <path d="M261.425 42.92c-1.549 1.847-2.818 2.118-3.707 1.705-.663-.308-.608-.817-.627-1.278-.025-.613-.598-1.162-1.759-.877-1.72.423-4.191 1.562-5.288 2.191-1.835 1.053-4.597.957-4.56-.8.038-1.759-1.69-2.039-3.129-1.772-1.743.323-6.372 1.727-10.03 3.611-2.477 1.277-4.66.765-5.156-.892-.601-2.005-1.732-2.044-2.962-1.73-1.23.312-4.942 1.635-7.265 2.581-2.45.998-5.121-.86-2.626-3.687 1.965-2.227 2.689-2.579 3.402-3.31.803-.824.908-1.65-.07-1.723-1.474-.11-1.974-2.09-.384-3.18 1.774-1.215 2.638-2.103 3.234-2.726.596-.623.328-1.49-.3-1.319-.932.255-1.118.53-1.907.467-.633-.049-1.675-1.4.3-3.23 1.974-1.832 4.087-4.147 5.141-5.271.878-.935.545-1.963-.438-1.648-.588.19-.964.313-1.36.44-1.024.33-2.45-.513-1.266-2.308 1.332-2.018 4.196-3.254 5.289-5.254.811-1.482.206-1.777-.316-1.704-.537.076-.937.298-1.322.22-.698-.142-1.283-.958-.037-2.417 1.853-2.172 7.381-3.754 9.668-3.864 1.123-.054 1.892.779 1.247 1.447-.426.441-.577.544-.875.952-.33.452.07 1.052.913.75 1.113-.397 4.871-1.666 7.786-3.112.752-.373 2.254-.421 2.646.604.231.609-.368 1.23.18 1.46 1.02.426 3.074-.33 5.128-1.332 1.075-.524 2.445-.563 2.626.348.154.768 1.406 1.037 2.105.75.923-.377 2.045-.723 2.645-.988.965-.426 1.92.365 1.193 1.428-1.137 1.662-6.04 4.107-9.705 5.787-1.315.602-3.848.164-4.277-1.283-.428-1.446-1.843-1.337-2.448-.988-.857.495-2.317 1.973-3.245 1.4-1.496-.92-3.189-.25-3.926.23-1.146.746-.813 1.599-.112 1.735.991.192 1.763 1.1.856 2.22-.84 1.038-1.778.964-2.477 1.373-1.088.638-.81 1.969.512 1.793 1.256-.167 3.356-1.488 4.2-1.903 1.03-.503 2.579-.198 2.46.733-.145 1.126 1.313.81 1.797.536.484-.275 5.351-3.242 6.399-3.649 1.154-.449 2.216-.495 2.515.604.298 1.099 1.512.7 1.83.6.588-.184 1.654-.444 2.193-.508.81-.096 1.583.518.727 1.758-1.006 1.455-6.185 5.255-7.116 5.97-.931.713-1.454.723-2.442.343-1.13-.435-1.912-.257-2.625.28-.628.47-2.078 1.558-2.626 2.087-.768.741-2.216.716-2.72-.202-.591-1.076-1.509-1.263-2.924-.989-1.91.37-7.011 2.915-7.824 3.424-1.49.934-1.638 2.38.405 2.01 2.279-.414 2.97-.477 3.772-.59 1.257-.179 2.235 1.098 1.453 2.184-.654.906-.816 1.044-.922 1.221-.2.34-.031.935.88.65 2.291-.713 6.088-3.184 6.958-3.616 1.439-.714 3.204-.037 2.915 1.621-.242 1.386-.438 2.023-.429 2.49.018.857.94 1.289 2.273.751 1.43-.577 4.112-1.881 4.726-2.363.615-.48 2.744-.732 3.437.811.511 1.136 2.04 1.753 3.368.93 1.327-.825 5.365-3.184 7.055-4.212 1.894-1.154 5.73.208 3.474 3.136-2.41 3.131-4.485 6.683-6.506 9.094M222.868 5.994c-2.28-.416-2.575-1.6-3.246-5.642-.034-.204-.194-.352-.38-.352s-.346.148-.38.352c-.671 4.042-.966 5.226-3.246 5.642-.177.032-.31.196-.323.395-.013.2.1.382.27.442 2.397.834 2.77 2.063 3.298 5.646.03.208.192.362.38.362.19 0 .351-.154.382-.362.53-3.584.901-4.812 3.298-5.646a.432.432 0 0 0 .27-.442c-.012-.2-.145-.363-.323-.395" fill="#C84E32"/>
        <path d="M262.36 10.969c-1.16-.187-1.34-.62-1.74-2.746a.398.398 0 0 0-.393-.322.399.399 0 0 0-.394.322c-.4 2.126-.58 2.56-1.74 2.746a.393.393 0 0 0-.055.765c1.276.39 1.48.87 1.794 2.75.032.19.2.33.395.33.196 0 .363-.14.394-.33.315-1.88.518-2.36 1.794-2.75a.394.394 0 0 0 .28-.404.397.397 0 0 0-.335-.361M250.476 28.235c-1.444-.22-1.667-.726-2.161-3.21a.433.433 0 0 0-.433-.336.433.433 0 0 0-.432.336c-.495 2.484-.717 2.99-2.162 3.21a.422.422 0 0 0-.368.376.412.412 0 0 0 .308.421c1.57.456 1.838 1.054 2.22 3.214a.432.432 0 0 0 .434.344c.215 0 .399-.145.434-.344.382-2.16.65-2.758 2.22-3.214a.412.412 0 0 0 .308-.42.422.422 0 0 0-.368-.377M215.91 30.21c-1.444-.22-1.666-.726-2.16-3.21a.434.434 0 0 0-.433-.335.433.433 0 0 0-.433.335c-.494 2.484-.716 2.99-2.161 3.21a.421.421 0 0 0-.368.376.412.412 0 0 0 .308.421c1.57.455 1.838 1.054 2.22 3.214a.432.432 0 0 0 .434.344c.215 0 .4-.146.434-.344.382-2.16.65-2.759 2.22-3.214a.41.41 0 0 0 .307-.421.421.421 0 0 0-.367-.376" fill="#C84E32"/>
        <path d="M267.938 33.979c2.234-3.007-1.566-4.405-3.444-3.22-1.675 1.055-5.677 3.478-6.992 4.324a2.263 2.263 0 0 1-3.337-.954c-.688-1.584-2.797-1.326-3.406-.833-.609.494-3.267 1.834-4.684 2.426-1.32.552-2.235.11-2.253-.771-.009-.48.186-1.134.425-2.557.286-1.702-1.463-2.397-2.889-1.664-.862.443-4.625 2.98-6.895 3.713-.904.292-1.07-.32-.873-.667.105-.183.266-.324.914-1.255.776-1.114-.194-2.425-1.44-2.242-.794.117-1.48.181-3.738.606-2.024.38-1.878-1.105-.401-2.063.805-.523 5.86-3.136 7.753-3.516 1.403-.282 2.312-.09 2.899 1.015.5.942 1.934.968 2.695.207.543-.543 1.98-1.659 2.603-2.143.706-.55 1.481-.734 2.6-.287.98.39 1.498.38 2.42-.352.924-.734 6.056-4.635 7.053-6.13.849-1.273.083-1.903-.72-1.805 1.12.85-1.36 2.647-2.428 3.315-3.484 2.174-6.475 1.152-7.175 1.217-1.739.164-2.648 1.992-4.275 2.492-1.184.364-2.279.137-2.866-1.066-.101-.205-.193-.448-.404-.53-.119-.049-.484-.197-1.073-.044-3.076.8-5.45 1.958-8.14 3.622-2.414 1.492-5.021 2.952-6.414 5.572-.131.246-.254.52-.207.796.142.826 1.238.302 1.701.264.318-.028.692.112.772.427.049.189-.023.386-.103.564-.631 1.415-2.42 2.575-2.423 4.196 0 .246.285.65.835.33 1.218-.707 4.317-3.016 5.153-.66.532 1.494.898 2.833 2.822 2.657 1.745-.159 2.844-1.639 4.446-2.12.545-.164 1.81-.356 2.566 1.339 1.098 2.459 3.608 1.018 5.6.215 1.195-.482 2.399-.854 3.542-.351.72.316 1.242.951 1.813 1.497 1.187 1.134 2.57 1.177 4.023.515 2.595-1.182 4.704-3.05 7.3-4.314 1.73-.842 2.84-.064 3.01 1.301.148 1.19-.54 2.925-.588 3.172 1.32-1.981 2.704-4.195 4.223-6.238M228.432 13.077c-1.374 2.477 2.304 1.774 3.92 1.1 1.432-.6 1.47-.879 3.103-.684-.71-.138-1.048-1.004.112-1.762.748-.488 2.463-1.167 3.977-.233.94.58 2.42-.92 3.288-1.422.612-.355 2.045-.466 2.48 1.003.434 1.47 3 1.915 4.331 1.303 3.712-1.706 8.68-4.19 9.83-5.877.61-.894.05-1.597-.715-1.566.985 1.504-2.254 1.286-3.293 2.407-1.175 1.268-2.586 1.746-4.723 2.137-3.719.68-4.337-2.575-7.41-1.986-1.688.323-2.84 1.67-4.666 1.095-3.346-1.056-9.221 2.656-10.234 4.485M262.427 10.968c-.927-.186-1.071-.62-1.392-2.745-.028-.187-.16-.322-.315-.322v6.913c.157 0 .29-.14.316-.33.252-1.881.415-2.36 1.435-2.751.142-.054.234-.221.224-.403-.01-.182-.121-.332-.268-.362M215.046 30.21c-.963-.22-1.111-.726-1.44-3.21-.026-.194-.148-.335-.29-.335v7.9c.144 0 .267-.145.29-.343.255-2.161.434-2.76 1.48-3.215.13-.056.215-.23.205-.42-.01-.19-.11-.346-.245-.377" fill="#541623"/>
        <path d="M246.606 25.025c-.33 2.484-.478 2.99-1.441 3.21-.134.03-.236.186-.245.377-.01.19.075.364.205.42 1.047.456 1.226 1.054 1.48 3.215.024.198.146.343.29.343v-7.9c-.142 0-.263.14-.289.335M220.23 0c-.234 0-.433.148-.475.352-.84 4.042-1.208 5.226-4.058 5.642-.221.032-.389.196-.404.396-.016.199.125.382.338.441 2.996.834 3.462 2.062 4.123 5.646.037.209.239.362.475.362V0" fill="#541623"/>
        <path d="M27.091 24.097c-2.179.377-2.45 1.385-3.054 4.823a.369.369 0 0 1-.36.303.37.37 0 0 1-.36-.303c-.604-3.438-.875-4.446-3.054-4.823-.169-.03-.303-.165-.304-.335 0-.17.135-.305.304-.334 2.179-.377 2.45-1.385 3.054-4.824a.37.37 0 0 1 .36-.303c.178.002.33.13.36.303.604 3.439.875 4.447 3.054 4.824.17.03.303.164.304.334 0 .17-.135.305-.304.335zm11.266-7.004c-3.323-.034-6.157 1.74-8.075 3.641-.93.939-2.798.773-2.494-1.164.114-.719.19-1.537.41-3.487.409-3.647-4.193-3.832-7.04-1.372-2.414 2.089-5.462 6.125-8.284 7.741-2.94 1.684-5.192-.883-4.038-4.715 1.02-3.387 4.195-7.622 9.764-8.712 4.779-.935 4.427 1.643 10.824 2.058 6.397.415 8.882-6.44 2.254-9.443C18.306-4.42 2.447 7.594.534 16.842-1.808 28.166 4.017 30.258 9.046 30.31c3.324.034 6.153-1.744 8.075-3.64 1.162-1.147 2.637-.37 2.524.871-.092 1.02-.415 2.872-.473 4.119-.163 3.477 4.621 3.225 6.864 1.217 1.6-1.432 6.437-6.863 8.494-7.926 3.094-1.597 5.19.884 4.037 4.716-1.019 3.387-4.194 7.621-9.764 8.711-4.778.935-4.426-1.642-10.823-2.058-6.397-.415-8.882 6.44-2.254 9.444 13.372 6.06 29.231-5.955 31.144-15.202 2.342-11.325-3.483-13.416-8.513-13.469z" fill="#C84E32"/>
        <path d="M28.49 8.228c-6.304-.408-5.957-2.934-10.665-2.017-5.488 1.068-8.617 5.218-9.622 8.538-.35 1.155-.38 2.192-.173 3.027.045-.223.103-.452.173-.686 1.005-3.32 4.134-7.47 9.622-8.538 4.708-.917 4.361 1.61 10.665 2.016 4.288.277 6.789-2.743 5.895-5.63-.619 1.957-2.787 3.49-5.895 3.29M33.382 23.23c-1.958 1.11-6.56 6.794-8.083 8.292-1.894 1.865-5.691 2.279-6.413-.195-.054.505-.1.997-.118 1.42-.155 3.638 4.397 3.375 6.531 1.274 1.522-1.498 6.125-7.181 8.083-8.293 2.012-1.142 3.58-.29 4.021 1.643.643-3.548-1.276-5.7-4.021-4.142M18.574 27.067c.076-.582.148-1.125.184-1.531.108-1.223-1.301-1.987-2.41-.86-1.836 1.869-4.539 3.62-7.713 3.587-3.824-.041-8.127-1.361-8.594-7.524-.54 8.191 4.325 9.83 8.594 9.875 3.174.034 5.877-1.717 7.713-3.585.826-.84 1.818-.63 2.226.038" fill="#EC932F"/>
        <path d="M44.914 28.137c-1.858 9.265-17.262 21.303-30.25 15.23-2.059-.962-3.209-2.318-3.622-3.706-.628 2.058.358 4.574 3.622 6.1 12.988 6.072 28.392-5.966 30.25-15.232.464-2.312.593-4.234.472-5.84a26.434 26.434 0 0 1-.472 3.448" fill="#EC932F"/>
        <text font-family="Calibre-Bold, Calibre" font-size="21" font-weight="bold" fill="#3497D5">
                    <tspan x="27.5" y="91.404">community  |  identity  |  health</tspan>
                </text>
    </g>
</svg>
